<svg width="43" height="43" viewBox="0 0 43 43" fill="none" xmlns="http://www.w3.org/2000/svg">
<path d="M43 22L33 16.2265L33 27.7735L43 22Z" fill="black"/>
<path d="M13.1705 35V8.81818H22.3239C24.1477 8.81818 25.652 9.13352 26.8366 9.7642C28.0213 10.3864 28.9034 11.2259 29.483 12.2827C30.0625 13.331 30.3523 14.4943 30.3523 15.7727C30.3523 16.8977 30.152 17.8267 29.7514 18.5597C29.3594 19.2926 28.8395 19.8722 28.1918 20.2983C27.5526 20.7244 26.858 21.0398 26.108 21.2443V21.5C26.9091 21.5511 27.7145 21.8324 28.5241 22.3438C29.3338 22.8551 30.0114 23.5881 30.5568 24.5426C31.1023 25.4972 31.375 26.6648 31.375 28.0455C31.375 29.358 31.0767 30.5384 30.4801 31.5866C29.8835 32.6349 28.9418 33.4659 27.6548 34.0795C26.3679 34.6932 24.6932 35 22.6307 35H13.1705ZM16.3409 32.1875H22.6307C24.7017 32.1875 26.1719 31.7869 27.0412 30.9858C27.919 30.1761 28.358 29.196 28.358 28.0455C28.358 27.1591 28.1321 26.3409 27.6804 25.5909C27.2287 24.8324 26.5852 24.2273 25.75 23.7756C24.9148 23.3153 23.9261 23.0852 22.7841 23.0852H16.3409V32.1875ZM16.3409 20.3239H22.2216C23.1761 20.3239 24.0369 20.1364 24.804 19.7614C25.5795 19.3864 26.1932 18.858 26.6449 18.1761C27.1051 17.4943 27.3352 16.6932 27.3352 15.7727C27.3352 14.6222 26.9347 13.6463 26.1335 12.8452C25.3324 12.0355 24.0625 11.6307 22.3239 11.6307H16.3409V20.3239Z" fill="black"/>
<line x1="3" y1="17" x2="11" y2="17" stroke="black" stroke-width="2"/>
<line x1="3" y1="27" x2="11" y2="27" stroke="black" stroke-width="2"/>
<line y1="22" x2="8" y2="22" stroke="black" stroke-width="2"/>
</svg>
